<?xml version="1.0" standalone="no"?>
<!DOCTYPE svg PUBLIC "-//W3C//DTD SVG 20010904//EN"
 "http://www.w3.org/TR/2001/REC-SVG-20010904/DTD/svg10.dtd">
<svg version="1.0" xmlns="http://www.w3.org/2000/svg"
 width="512.000000pt" height="512.000000pt" viewBox="0 0 512.000000 512.000000"
 preserveAspectRatio="xMidYMid meet">

<g transform="translate(0.000000,512.000000) scale(0.100000,-0.100000)"
fill="#000000" stroke="none">
<path d="M1 3978 l1 -1143 19 115 c20 127 24 144 81 345 104 361 260 637 559
989 105 124 270 272 429 385 56 41 319 201 328 201 2 0 32 13 66 29 151 72
353 147 491 181 l150 38 -1062 1 -1063 1 1 -1142z"/>
<path d="M3103 5114 c3 -3 63 -19 134 -34 146 -33 207 -52 348 -110 526 -214
978 -598 1277 -1085 73 -119 123 -220 193 -390 31 -77 59 -142 61 -144 2 -2 4
395 4 882 l0 887 -1012 0 c-556 0 -1009 -3 -1005 -6z"/>
<path d="M2518 4597 c-19 -16 -29 -35 -33 -67 -3 -25 -12 -85 -20 -135 -36
-226 -38 -279 -11 -297 6 -4 71 -8 144 -8 119 0 134 2 152 20 26 26 26 66 1
80 -11 5 -58 10 -105 10 -82 0 -86 1 -92 24 -10 42 11 65 67 72 50 7 79 24 79
47 0 28 -32 57 -71 63 -37 6 -39 8 -39 43 0 20 4 41 8 47 4 6 40 13 79 16 101
7 129 37 83 86 -19 20 -31 22 -118 22 -85 -1 -100 -3 -124 -23z"/>
<path d="M3073 4522 c-65 -21 -131 -76 -169 -139 -23 -39 -28 -60 -28 -115 -1
-58 3 -71 29 -110 17 -23 51 -56 75 -73 40 -27 53 -30 118 -29 79 1 112 18
112 59 0 32 -19 45 -68 45 -48 0 -101 26 -139 68 -28 31 -28 44 -2 96 29 59
75 87 155 95 70 8 84 18 84 62 0 58 -64 73 -167 41z"/>
<path d="M2201 4482 c-16 -13 -24 -35 -31 -98 -11 -90 -40 -186 -58 -192 -7
-2 -16 7 -21 20 -32 83 -113 238 -129 247 -24 13 -82 -20 -82 -48 0 -25 138
-296 187 -365 60 -86 107 -87 140 -3 25 66 62 237 79 377 6 47 5 49 -57 77 -4
2 -16 -5 -28 -15z"/>
<path d="M3502 4441 c-8 -5 -29 -37 -47 -72 -18 -35 -58 -113 -89 -174 -82
-157 -90 -180 -70 -211 19 -28 54 -31 77 -6 18 19 78 126 103 182 9 19 34 73
56 120 51 106 61 139 47 157 -13 15 -57 17 -77 4z"/>
<path d="M1347 4300 c-28 -18 -59 -89 -64 -150 -8 -84 40 -314 85 -410 15 -31
21 -35 56 -35 56 0 64 19 41 94 -23 76 -14 102 41 119 42 13 37 16 96 -57 23
-28 83 -29 98 -2 12 23 4 49 -36 112 -51 78 -54 84 -67 109 -22 46 -105 165
-135 193 -32 31 -87 43 -115 27z m82 -169 c23 -13 57 -89 45 -101 -5 -5 -21
-12 -36 -15 -23 -6 -29 -3 -37 17 -7 18 -9 92 -2 106 2 4 12 2 30 -7z"/>
<path d="M3734 4190 c-11 -4 -82 -73 -157 -151 -114 -120 -137 -149 -137 -174
0 -70 59 -75 117 -12 22 24 48 56 58 70 9 15 26 27 37 27 18 0 19 -5 12 -100
l-7 -99 27 -11 c28 -10 76 -4 76 10 0 4 27 34 60 66 34 32 80 84 103 114 23
30 60 78 83 105 23 28 44 62 48 77 8 35 -12 78 -36 78 -21 0 -85 -63 -156
-152 -24 -32 -49 -55 -53 -52 -5 3 -9 48 -9 99 0 83 -2 96 -19 105 -22 11 -19
11 -47 0z"/>
<path d="M782 3877 c-21 -23 -22 -25 -7 -60 8 -21 52 -86 98 -145 45 -59 93
-124 107 -144 32 -48 58 -60 93 -42 15 8 27 18 27 22 0 4 20 30 45 57 25 28
64 73 86 102 40 51 40 52 24 77 -13 20 -26 26 -53 26 -31 0 -43 -9 -96 -65
-34 -36 -64 -65 -68 -65 -3 0 -22 25 -42 54 -20 30 -42 61 -49 68 -7 7 -23 31
-37 53 -27 46 -68 84 -91 85 -8 0 -25 -11 -37 -23z"/>
<path d="M4287 3884 c-77 -15 -220 -85 -301 -148 -30 -22 -66 -50 -80 -60 -32
-23 -35 -74 -8 -99 27 -25 44 -21 88 18 55 50 79 54 115 19 33 -32 37 -65 10
-91 -20 -20 -41 -56 -41 -72 0 -18 39 -51 59 -51 26 0 84 58 196 195 22 27 51
60 64 74 37 41 79 106 86 134 9 35 -10 66 -50 83 -40 16 -47 16 -138 -2z m13
-131 c0 -24 -48 -83 -69 -83 -24 0 -55 35 -48 55 4 8 15 15 25 15 10 0 27 7
38 15 26 19 54 19 54 -2z"/>
<path d="M2310 3623 c-8 -2 -24 -8 -35 -13 -11 -5 -40 -14 -63 -20 -24 -6 -69
-25 -99 -41 -37 -20 -70 -30 -101 -31 -95 -2 -287 -135 -348 -241 -30 -51 -64
-131 -64 -148 0 -38 -51 -164 -78 -194 -38 -40 -58 -73 -108 -175 -70 -143
-98 -271 -91 -425 7 -174 34 -237 149 -342 19 -17 52 -55 74 -83 42 -55 124
-122 164 -135 14 -4 34 -14 45 -21 30 -21 157 -18 200 5 32 17 85 18 85 1 0
-11 150 -66 280 -102 60 -17 112 -22 257 -26 165 -3 187 -2 250 18 37 12 82
27 98 35 17 7 55 23 85 35 30 12 82 38 114 58 51 30 60 33 70 20 6 -8 38 -23
71 -34 163 -52 350 7 483 153 37 40 73 73 79 73 23 0 100 88 126 142 38 79 61
207 53 292 -7 92 -30 197 -49 233 -8 15 -24 51 -36 79 -18 44 -41 85 -103 178
-7 10 -23 31 -35 46 -13 15 -23 31 -23 35 0 26 -183 220 -250 265 -12 8 -32
22 -44 31 -47 36 -126 89 -131 89 -3 0 -27 15 -54 34 -27 19 -70 44 -97 56
-54 24 -141 66 -164 79 -52 29 -80 40 -115 46 -22 4 -46 12 -52 17 -18 14
-135 21 -153 9 -23 -16 -6 -23 64 -28 38 -3 71 -12 77 -19 6 -8 21 -14 33 -14
11 0 35 -9 51 -20 17 -11 38 -20 48 -20 11 0 30 -9 44 -20 14 -11 32 -20 40
-20 22 0 10 -25 -14 -28 -11 -2 -26 4 -33 13 -7 8 -22 15 -34 15 -12 0 -30 6
-41 14 -11 7 -36 17 -55 21 -19 4 -42 13 -50 20 -8 7 -46 15 -83 17 -42 2 -72
9 -76 17 -6 9 -39 14 -108 15 -86 2 -104 5 -128 24 -27 21 -86 28 -125 15z
m1140 -367 c14 -11 27 -24 30 -28 3 -3 33 -29 68 -57 60 -47 142 -139 142
-158 0 -4 9 -14 20 -21 11 -7 20 -19 20 -27 0 -8 4 -15 9 -15 5 0 13 -9 16
-20 3 -11 12 -26 18 -33 27 -29 57 -77 63 -101 3 -14 10 -28 14 -31 4 -2 19
-28 32 -57 63 -133 87 -291 64 -433 -17 -114 -62 -215 -95 -215 -14 0 -15 32
-1 46 5 5 15 32 20 59 6 28 15 68 20 90 17 74 12 227 -10 295 -11 34 -20 74
-20 87 0 13 -7 31 -15 39 -8 9 -15 25 -15 36 0 11 -9 31 -20 45 -11 14 -20 34
-20 43 0 10 -7 20 -15 24 -8 3 -15 14 -15 25 0 11 -9 25 -20 31 -11 6 -20 15
-20 21 0 6 -9 23 -20 37 -76 100 -103 128 -195 207 -77 65 -125 117 -125 133
0 18 37 6 70 -22z m-1013 -260 c-4 -9 -11 -16 -17 -16 -11 0 -14 33 -3 44 11
10 26 -11 20 -28z m-27 -70 c0 -18 -6 -41 -14 -51 -31 -42 12 -203 67 -257 40
-38 82 -58 120 -58 24 0 66 -13 110 -35 68 -34 75 -35 181 -35 79 0 119 4 140
15 15 8 30 15 32 15 2 0 13 -19 25 -42 24 -48 66 -107 89 -125 37 -30 138 -73
172 -73 60 0 77 -60 49 -173 -23 -92 -29 -103 -89 -159 -66 -62 -123 -98 -257
-166 -134 -67 -182 -84 -320 -114 -66 -14 -263 -3 -311 17 -20 8 -53 15 -73
15 -66 0 -266 76 -361 138 -60 39 -159 141 -166 170 -4 15 -13 34 -21 44 -8 9
-17 48 -20 91 -5 65 -3 80 16 110 11 19 21 46 21 60 0 14 6 30 13 34 7 4 26
25 43 45 18 24 37 38 52 38 52 0 168 34 196 57 25 21 35 23 70 16 73 -14 123
-8 161 21 38 29 43 50 20 76 -12 13 -16 45 -18 129 -2 97 0 114 16 125 12 9
17 27 17 59 0 27 5 47 13 50 20 7 27 -2 27 -37z"/>
<path d="M2227 2382 c-25 -28 -23 -118 2 -132 27 -14 29 -14 46 20 19 37 19
80 -1 108 -18 27 -26 27 -47 4z"/>
<path d="M2840 2375 c-13 -33 -13 -76 0 -109 18 -49 59 -24 66 41 9 70 -45
125 -66 68z"/>
<path d="M2280 2041 c0 -6 5 -13 10 -16 6 -3 10 1 10 9 0 9 -4 16 -10 16 -5 0
-10 -4 -10 -9z"/>
<path d="M2709 1980 c-41 -38 -98 -81 -128 -96 -78 -38 -107 -29 -195 57 -38
38 -71 69 -73 69 -2 0 -3 -10 -3 -23 0 -35 85 -125 145 -152 77 -36 149 -11
244 84 51 51 97 118 88 127 -2 2 -37 -28 -78 -66z"/>
<path d="M1 1073 l-1 -1073 898 0 c893 1 897 1 873 20 -13 11 -32 20 -42 20
-17 0 -48 11 -124 46 -16 7 -42 16 -58 20 -15 3 -29 10 -32 14 -3 4 -38 24
-77 44 -40 20 -93 50 -118 66 -44 29 -96 60 -149 90 -150 84 -539 438 -627
570 -39 57 -52 76 -100 140 -22 30 -47 67 -55 82 -29 54 -140 253 -149 268 -6
8 -13 22 -16 30 -3 8 -14 33 -24 55 -44 93 -130 343 -130 378 0 10 -5 27 -11
38 -5 11 -17 57 -26 102 -8 45 -19 100 -23 122 -4 22 -8 -443 -9 -1032z"/>
<path d="M5095 1643 c-9 -27 -23 -60 -31 -75 -8 -14 -14 -34 -14 -43 0 -9 -6
-29 -14 -43 -8 -15 -28 -56 -46 -92 -42 -87 -106 -206 -155 -287 -96 -160
-346 -445 -515 -587 -83 -70 -294 -226 -306 -226 -3 0 -38 -19 -77 -43 -139
-84 -389 -202 -471 -223 -14 -3 -29 -10 -32 -15 -3 -5 349 -9 840 -9 l846 0 0
845 c0 465 -2 845 -4 845 -2 0 -12 -21 -21 -47z"/>
<path d="M1621 1231 c-8 -5 -18 -33 -22 -63 -3 -29 -13 -82 -22 -118 -8 -36
-23 -100 -32 -143 l-17 -78 26 -40 c17 -25 34 -39 48 -39 18 0 74 39 120 83
21 20 161 131 196 156 48 33 38 101 -15 101 -24 0 -107 -60 -187 -134 -43 -41
-58 -29 -50 41 4 32 13 73 20 92 38 92 -3 181 -65 142z"/>
<path d="M3507 1218 c-14 -13 -32 -43 -42 -68 -32 -85 -16 -374 26 -452 12
-22 61 -24 78 -4 9 10 10 36 5 85 -6 64 -5 71 12 77 11 3 30 11 43 17 20 10
26 8 47 -18 13 -17 24 -35 24 -42 0 -19 37 -34 64 -27 42 10 41 39 -2 127 -22
45 -49 102 -61 127 -91 188 -137 230 -194 178z m87 -194 c18 -53 15 -64 -19
-64 -33 0 -44 35 -25 84 14 38 26 32 44 -20z"/>
<path d="M3154 1079 c-32 -9 -95 -28 -138 -42 -88 -26 -110 -47 -95 -86 9 -22
13 -23 69 -18 56 5 60 3 65 -16 14 -69 35 -190 41 -240 6 -59 33 -107 59 -107
8 0 22 12 32 26 18 28 19 7 -19 277 -6 46 -9 91 -5 100 4 10 23 19 47 23 46 8
68 40 50 73 -14 28 -40 30 -106 10z"/>
<path d="M2121 1054 c-11 -14 -21 -31 -21 -36 0 -5 -7 -25 -17 -46 -9 -20 -22
-55 -29 -77 -6 -22 -23 -71 -38 -108 -14 -38 -28 -90 -32 -117 -8 -60 -6 -61
143 -85 124 -21 143 -16 143 35 0 37 -15 47 -87 55 -78 9 -92 23 -70 70 16 33
19 34 79 37 l63 3 3 33 c3 30 0 34 -42 53 -52 23 -59 46 -25 80 16 16 28 20
53 15 87 -18 103 -18 119 -1 44 43 -8 87 -118 99 -33 3 -70 8 -81 12 -15 4
-27 -2 -43 -22z"/>
<path d="M2742 978 c-6 -6 -12 -23 -12 -36 0 -14 -4 -41 -10 -61 -5 -20 -12
-53 -15 -73 -8 -52 -26 -48 -53 13 -28 60 -60 79 -95 56 -23 -15 -53 -104 -76
-232 -5 -27 -14 -63 -20 -78 -6 -16 -11 -44 -11 -62 0 -28 5 -36 24 -41 58
-14 69 -4 91 78 29 110 36 113 76 31 28 -55 39 -69 60 -71 39 -5 54 27 83 184
15 76 32 163 38 192 10 46 9 58 -4 80 -18 30 -56 40 -76 20z"/>
</g>
</svg>
